<?xml version="1.0" encoding="iso-8859-1"?>
<!-- Generator: Adobe Illustrator 16.0.0, SVG Export Plug-In . SVG Version: 6.00 Build 0)  -->
<!DOCTYPE svg PUBLIC "-//W3C//DTD SVG 1.1//EN" "http://www.w3.org/Graphics/SVG/1.1/DTD/svg11.dtd">
<svg version="1.1" id="Capa_1" xmlns="http://www.w3.org/2000/svg" xmlns:xlink="http://www.w3.org/1999/xlink" x="0px" y="0px"
	 width="40.251px" height="40.251px" viewBox="0 0 40.251 40.251" style="enable-background:new 0 0 40.251 40.251;"
	 xml:space="preserve">
<g>
	<g>
		<polygon points="36.691,11.558 31.169,11.558 33.932,16.34 		"/>
		<polygon points="29.788,11.558 24.268,11.558 27.027,16.34 		"/>
		<polygon points="22.887,11.558 17.364,11.558 20.125,16.34 		"/>
		<polygon points="15.983,11.558 10.462,11.558 13.224,16.34 		"/>
		<polygon points="9.082,11.558 3.56,11.558 6.32,16.34 		"/>
		<polygon points="9.771,11.956 7.012,16.738 12.533,16.738 		"/>
		<polygon points="16.674,11.956 13.914,16.738 19.436,16.738 		"/>
		<polygon points="23.577,11.956 20.815,16.738 26.337,16.738 		"/>
		<polygon points="30.479,11.956 27.718,16.738 33.239,16.738 		"/>
		<polygon points="33.239,17.535 27.718,17.535 30.479,22.316 		"/>
		<polygon points="26.337,17.535 20.815,17.535 23.577,22.316 		"/>
		<polygon points="19.436,17.535 13.914,17.535 16.674,22.316 		"/>
		<polygon points="12.533,17.535 7.012,17.535 9.771,22.316 		"/>
		<polygon points="20.125,17.934 17.364,22.716 22.887,22.716 		"/>
		<polygon points="9.771,0 7.012,4.782 12.533,4.782 		"/>
		<polygon points="30.479,0 27.718,4.782 33.239,4.782 		"/>
		<polygon points="33.239,5.579 27.718,5.579 30.479,10.361 		"/>
		<polygon points="12.533,5.579 7.012,5.579 9.771,10.361 		"/>
		<polygon points="6.32,5.978 3.56,10.76 9.082,10.76 		"/>
		<polygon points="13.224,5.978 10.462,10.76 15.983,10.76 		"/>
		<polygon points="27.027,5.978 24.268,10.76 29.788,10.76 		"/>
		<polygon points="33.932,5.978 31.169,10.76 36.691,10.76 		"/>
		<polygon points="29.788,23.514 24.268,23.514 27.027,28.295 		"/>
		<polygon points="15.983,23.514 10.462,23.514 13.224,28.295 		"/>
		<polygon points="16.674,23.911 13.914,28.693 19.436,28.693 		"/>
		<polygon points="23.577,23.911 20.815,28.693 26.337,28.693 		"/>
		<polygon points="26.337,29.491 20.815,29.491 23.577,34.273 		"/>
		<polygon points="19.436,29.491 13.914,29.491 16.674,34.273 		"/>
		<polygon points="20.125,29.891 17.364,34.672 22.887,34.672 		"/>
		<polygon points="22.887,35.469 17.364,35.469 20.125,40.251 		"/>
	</g>
</g>
<g>
</g>
<g>
</g>
<g>
</g>
<g>
</g>
<g>
</g>
<g>
</g>
<g>
</g>
<g>
</g>
<g>
</g>
<g>
</g>
<g>
</g>
<g>
</g>
<g>
</g>
<g>
</g>
<g>
</g>
</svg>
